<?xml version="1.0" encoding="UTF-8"?>
<svg width="437px" height="404px" viewBox="0 0 437 404" version="1.1" xmlns="http://www.w3.org/2000/svg" xmlns:xlink="http://www.w3.org/1999/xlink">
    <title>F498A8C4-F01B-4A15-AA47-4A9DFD03AA98</title>
    <g id="Google-Workspace" stroke="none" stroke-width="1" fill="none" fill-rule="evenodd">
        <g id="Google-Workspace-Page" transform="translate(-411.000000, -1112.000000)">
            <g id="GoogleAppsIllustration" transform="translate(411.000000, 1112.000000)">
                <g id="Group-2" transform="translate(51.000000, 45.000000)" stroke="#1F2044" stroke-linecap="square" stroke-width="5">
                    <line x1="184.5" y1="142.5" x2="338.5" y2="169.5" id="Line"></line>
                    <line x1="184.5" y1="142.5" x2="310.5" y2="16.5" id="Line"></line>
                    <line x1="184.5" y1="142.5" x2="161.5" y2="0.5" id="Line"></line>
                    <line x1="184.5" y1="142.5" x2="48.5" y2="30.5" id="Line"></line>
                    <line x1="184.5" y1="142.5" x2="0.5" y2="135.5" id="Line"></line>
                    <line x1="184.5" y1="142.5" x2="79.5" y2="234.5" id="Line"></line>
                    <line x1="184.5" y1="142.5" x2="162.5" y2="318.5" id="Line"></line>
                    <line x1="184.5" y1="142.5" x2="317.5" y2="286.5" id="Line"></line>
                </g>
                <circle id="Oval" fill="#FFCF00" cx="213" cy="53" r="47"></circle>
                <g id="Rectangle-+-Rectangle-Copy-3-Mask" transform="translate(151.000000, 109.000000)">
                    <circle id="Mask" fill="#2E93EE" cx="86.5" cy="86.5" r="86.5"></circle>
                    <path d="M163.570975,47.1872393 C169.599568,58.9824333 173,72.34411 173,86.5 C173,134.272631 134.272631,173 86.5,173 C72.34411,173 58.9824333,169.599568 47.1872393,163.570975 Z" id="Combined-Shape" fill="#FF9144"></path>
                    <path d="M135.528273,15.2268256 C147.491429,23.4718872 157.276223,34.6510313 163.843525,47.72513 L47.7241275,163.843022 C34.6507873,157.275887 23.4722365,147.491614 15.2274452,135.529172 Z" id="Combined-Shape" fill="#FFCF00"></path>
                </g>
                <circle id="Oval-Copy-5" fill="#FF9144" cx="390" cy="207" r="47"></circle>
                <circle id="Oval-Copy-6" fill="#2E93EE" cx="221" cy="357" r="47"></circle>
                <circle id="Oval-Copy-7" fill="#2E93EE" cx="47" cy="187" r="47"></circle>
                <circle id="Oval-Copy" fill="#2E93EE" cx="367" cy="66" r="36"></circle>
                <circle id="Oval-Copy-8" fill="#FF9144" cx="104" cy="80" r="36"></circle>
                <circle id="Oval-Copy-9" fill="#FFCF00" cx="130" cy="281" r="36"></circle>
                <circle id="Oval-Copy-3" fill="#FFCF00" cx="365" cy="335" r="36"></circle>
                <circle id="Oval" stroke="#1F2044" stroke-width="4" fill="#FFFFFF" cx="213" cy="47" r="45"></circle>
                <circle id="Oval-Copy-10" stroke="#1F2044" stroke-width="4" fill="#FFFFFF" cx="237.5" cy="189.5" r="80.5"></circle>
                <circle id="Oval-Copy-5" stroke="#1F2044" stroke-width="4" fill="#FFFFFF" cx="389" cy="213" r="45"></circle>
                <circle id="Oval-Copy-6" stroke="#1F2044" stroke-width="4" fill="#FFFFFF" cx="217" cy="351" r="45"></circle>
                <circle id="Oval-Copy-7" stroke="#1F2044" stroke-width="4" fill="#FFFFFF" cx="52" cy="182" r="45"></circle>
                <circle id="Oval-Copy" stroke="#1F2044" stroke-width="4" fill="#FFFFFF" cx="362" cy="61" r="34"></circle>
                <circle id="Oval-Copy-8" stroke="#1F2044" stroke-width="4" fill="#FFFFFF" cx="99" cy="75" r="34"></circle>
                <circle id="Oval-Copy-9" stroke="#1F2044" stroke-width="4" fill="#FFFFFF" cx="125" cy="284" r="34"></circle>
                <circle id="Oval-Copy-3" stroke="#1F2044" stroke-width="4" fill="#FFFFFF" cx="369" cy="331" r="34"></circle>
                <g id="Google__G__Logo" transform="translate(196.000000, 147.000000)" fill-rule="nonzero">
                    <path d="M83,44.1875564 C83,41.3381425 82.7502176,38.6330027 82.3220191,36 L42,36 L42,52.2669071 L65.0870322,52.2669071 C64.0522193,57.6050496 61.0191471,62.1136159 56.5230635,65.1794409 L56.5230635,76 L70.2967798,76 C78.3611836,68.4616772 83,57.3525699 83,44.1875564 Z" id="Path" fill="#4285F4"></path>
                    <path d="M42.4962446,86 C54.1421674,86 63.8830472,82.1071061 71,75.5108136 L57.1255365,64.6972194 C53.2435622,67.292482 48.319206,68.8784758 42.4962446,68.8784758 C31.2457082,68.8784758 21.7204936,61.2729145 18.305794,51 L4,51 L4,62.1380021 C11.0810086,76.2677652 25.638412,86 42.4962446,86 Z" id="Path" fill="#34A853"></path>
                    <path d="M19,51.8001859 C18.0986717,49.1905204 17.629981,46.3996283 17.629981,43.5 C17.629981,40.6003717 18.1347249,37.8094796 19,35.1998141 L19,24 L4.65085389,24 C1.69449715,29.8717472 0,36.4684015 0,43.5 C0,50.5315985 1.69449715,57.1282528 4.65085389,63 L19,51.8001859 Z" id="Path" fill="#FBBC05"></path>
                    <path d="M43.3112653,17.1215242 C49.642819,17.1215242 55.2947144,19.3202884 59.7661506,23.6096807 L72,11.2821833 C64.5953017,4.28939238 54.901228,0 43.3112653,0 C26.5344367,0 12.0469834,9.73223481 5,23.8619979 L19.2370529,35 C22.6353444,24.7270855 32.1147891,17.1215242 43.3112653,17.1215242 Z" id="Path" fill="#EA4335"></path>
                </g>
                <g id="Gmail_Product_Icon_96dp-Copy" transform="translate(23.000000, 159.000000)">
                    <path d="M3.88636364,43 L12.9545455,43 L12.9545455,20.8539099 L0,11.083576 L0,39.0918665 C0,41.2511102 1.73914773,43 3.88636364,43 Z" id="Path" fill="#4285F4" fill-rule="nonzero"></path>
                    <path d="M44.0454545,43 L53.1136364,43 C55.2608523,43 57,41.2511102 57,39.0918665 L57,11.083576 L44.0454545,20.8539099 L44.0454545,43 Z" id="Path" fill="#34A853" fill-rule="nonzero"></path>
                    <path d="M44.0454545,3.91866451 L44.0454545,20.8539099 L57,11.083576 L57,5.87273128 C57,1.04292957 51.5169886,-1.71556136 47.6727273,1.18297102 L44.0454545,3.91866451 Z" id="Path" fill="#FBBC04" fill-rule="nonzero"></path>
                    <polygon id="Path" fill="#EA4335" points="12.9545455 20.8539099 12.9545455 3.91866451 28.5 15.6430652 44.0454545 3.91866451 44.0454545 20.8539099 28.5 32.5783105"></polygon>
                    <path d="M0,5.87273128 L0,11.083576 L12.9545455,20.8539099 L12.9545455,3.91866451 L9.32727273,1.18297102 C5.48301136,-1.71556136 0,1.04292957 0,5.87273128 Z" id="Path" fill="#C5221F" fill-rule="nonzero"></path>
                </g>
                <g id="Calendar_Product_Icon-Copy" transform="translate(362.000000, 187.000000)" fill-rule="nonzero">
                    <polygon id="Path" fill="#FFFFFF" points="41.9736842 13.0263158 13.0263158 13.0263158 13.0263158 41.9736842 41.9736842 41.9736842"></polygon>
                    <path d="M18.9641447,35.4822368 C17.8822368,34.7513158 17.1332237,33.6838816 16.7243421,32.2726974 L19.2355263,31.2378289 C19.4634868,32.10625 19.8615132,32.7792763 20.4296053,33.2569079 C20.9940789,33.7345395 21.6815789,33.9697368 22.4848684,33.9697368 C23.30625,33.9697368 24.0118421,33.7200658 24.6016447,33.2207237 C25.1914474,32.7213816 25.4881579,32.0845395 25.4881579,31.3138158 C25.4881579,30.525 25.1769737,29.8809211 24.5546053,29.3815789 C23.9322368,28.8822368 23.1506579,28.6325658 22.2171053,28.6325658 L20.7661184,28.6325658 L20.7661184,26.1467105 L22.06875,26.1467105 C22.8720395,26.1467105 23.5486842,25.9296053 24.0986842,25.4953947 C24.6486842,25.0611842 24.9236842,24.4677632 24.9236842,23.7115132 C24.9236842,23.0384868 24.6776316,22.5029605 24.1855263,22.1013158 C23.6934211,21.6996711 23.0710526,21.4970395 22.3148026,21.4970395 C21.5766447,21.4970395 20.9904605,21.6924342 20.55625,22.0868421 C20.1220395,22.48125 19.8072368,22.9661184 19.6082237,23.5378289 L17.1223684,22.5029605 C17.4516447,21.5694079 18.0559211,20.7444079 18.9424342,20.0315789 C19.8289474,19.31875 20.9615132,18.9605263 22.3365132,18.9605263 C23.3532895,18.9605263 24.26875,19.1559211 25.0792763,19.5503289 C25.8898026,19.9447368 26.5266447,20.4911184 26.9861842,21.1858553 C27.4457237,21.8842105 27.6736842,22.6657895 27.6736842,23.5342105 C27.6736842,24.4207237 27.4601974,25.1697368 27.0332237,25.7848684 C26.60625,26.4 26.0815789,26.8703947 25.4592105,27.1996711 L25.4592105,27.3480263 C26.2805921,27.6917763 26.95,28.2164474 27.4782895,28.9220395 C28.0029605,29.6276316 28.2671053,30.4707237 28.2671053,31.4549342 C28.2671053,32.4391447 28.0174342,33.3184211 27.5180921,34.0891447 C27.01875,34.8598684 26.3276316,35.4677632 25.4519737,35.9092105 C24.5726974,36.3506579 23.5848684,36.5750266 22.4884868,36.5750266 C21.2184211,36.5786184 20.0460526,36.2131579 18.9641447,35.4822368 Z" id="Path" fill="#4285F4"></path>
                    <polygon id="Path" fill="#4285F4" points="34.3894737 23.0203947 31.6322368 25.0141447 30.2536184 22.9226974 35.2 19.3549342 37.0960526 19.3549342 37.0960526 36.1842105 34.3894737 36.1842105"></polygon>
                    <polygon id="Path" fill="#34A853" points="41.9736842 41.9736842 13.0263158 41.9736842 13.0263158 55 41.9736842 55"></polygon>
                    <path d="M41.9736842,0 L4.34210526,0 C1.94309211,0 0,1.94309211 0,4.34210526 L0,41.9736842 L13.0263158,41.9736842 L13.0263158,13.0263158 L41.9736842,13.0263158 L41.9736842,0 Z" id="Path" fill="#4285F4"></path>
                    <path d="M0,41.9736842 L0,50.6578947 C0,53.0569079 1.94309211,55 4.34210526,55 L13.0263158,55 L13.0263158,41.9736842 L0,41.9736842 Z" id="Path" fill="#188038"></path>
                    <polygon id="Path" fill="#FBBC04" points="55 13.0263158 41.9736842 13.0263158 41.9736842 41.9736842 55 41.9736842"></polygon>
                    <path d="M55,13.0263158 L55,4.34210526 C55,1.94309211 53.0569079,0 50.6578947,0 L41.9736842,0 L41.9736842,13.0263158 L55,13.0263158 Z" id="Path" fill="#1967D2"></path>
                    <polygon id="Path" fill="#EA4335" points="41.9736842 55 55 41.9736842 41.9736842 41.9736842"></polygon>
                </g>
                <g id="Meet_Product_Icon-Copy" transform="translate(184.000000, 21.000000)" fill-rule="nonzero">
                    <path d="M45.75,34.1336227 L45.75,32.4044424 L45.75,30.0164348 L45.75,18.7764288 L45.75,16.3884212 L47.608725,12.5593682 L56.9022,5.2718803 C58.141275,4.24258333 60,5.10721061 60,6.71292576 L60,41.54465 C60,43.1503652 58.100025,44.0149924 56.860875,42.9856955 L45.75,34.1336227 Z" id="Path" fill="#00AC47"></path>
                    <polygon id="Path" fill="#FE2C25" points="15 0 0 14.8484848 15 14.8484848"></polygon>
                    <polygon id="Path" fill="#2684FC" points="15 14.8484848 0 14.8484848 0 34.1515152 15 34.1515152"></polygon>
                    <path d="M0,34.1515152 L0,44.0504803 C0,46.7727273 2.25,49 5.000025,49 L15,49 L15,34.1515152 L0,34.1515152 Z" id="Path" fill="#0066DA"></path>
                    <path d="M47.625,4.89272424 C47.625,2.20173333 45.42285,0 42.73125,0 L32.94375,0 L15,0 L15,14.8484848 L33.375,14.8484848 L33.375,24.5 L47.625,24.0557333 L47.625,4.89272424 Z" id="Path" fill="#FFBA00"></path>
                    <path d="M33.375,34.1515152 L15,34.1515152 L15,49 L32.94375,49 L42.73125,49 C45.42285,49 47.625,46.8014591 47.625,44.114403 L47.625,24.5 L33.375,24.5 L33.375,34.1515152 Z" id="Path" fill="#00AC47"></path>
                    <polygon id="Path" fill="#00832D" points="47.625 12.6212121 47.625 35.6363636 33.375 24.5"></polygon>
                </g>
                <g id="Docs_Product_Icon-Copy" transform="translate(84.000000, 52.000000)" fill-rule="nonzero">
                    <path d="M29,45 L3,45 C1.3425,45 0,43.6269886 0,41.9318182 L0,3.06818182 C0,1.37301136 1.3425,0 3,0 L21,0 L32,11.25 L32,41.9318182 C32,43.6269886 30.6575,45 29,45 Z" id="Path" fill="#2684FC"></path>
                    <polygon id="Path" fill="#0066DA" points="21 0 32 11 21 11"></polygon>
                    <polygon id="Path" fill="#FFFFFF" points="25 17 7 17 7 20 25 20"></polygon>
                    <polygon id="Path" fill="#FFFFFF" points="25 24 7 24 7 27 25 27"></polygon>
                    <polygon id="Path" fill="#FFFFFF" points="20 29 7 29 7 32 20 32"></polygon>
                </g>
                <g id="Forms_Product_Icon-Copy" transform="translate(352.000000, 308.000000)" fill-rule="nonzero">
                    <path d="M30.8125,46 L3.1875,46 C1.42640625,46 0,44.5964773 0,42.8636364 L0,3.13636364 C0,1.40352273 1.42640625,0 3.1875,0 L22.3125,0 L34,11.5 L34,42.8636364 C34,44.5964773 32.5735938,46 30.8125,46 Z" id="Path" fill="#7248B9"></path>
                    <polygon id="Path" fill="#56368A" points="22 0 34 12 22 12"></polygon>
                    <polygon id="Path" fill="#FFFFFF" points="27 18 14 18 14 21 27 21"></polygon>
                    <path d="M9,21 C10.1046,21 11,20.1046 11,19 C11,17.8954 10.1046,17 9,17 C7.8954,17 7,17.8954 7,19 C7,20.1046 7.8954,21 9,21 Z" id="Path" fill="#FFFFFF"></path>
                    <polygon id="Path" fill="#FFFFFF" points="27 24 14 24 14 27 27 27"></polygon>
                    <path d="M9,28 C10.1046,28 11,27.1046 11,26 C11,24.8954 10.1046,24 9,24 C7.8954,24 7,24.8954 7,26 C7,27.1046 7.8954,28 9,28 Z" id="Path" fill="#FFFFFF"></path>
                    <polygon id="Path" fill="#FFFFFF" points="27 30 14 30 14 33 27 33"></polygon>
                    <path d="M9,34 C10.1046,34 11,33.1046 11,32 C11,30.8954 10.1046,30 9,30 C7.8954,30 7,30.8954 7,32 C7,33.1046 7.8954,34 9,34 Z" id="Path" fill="#FFFFFF"></path>
                </g>
                <g id="Sheets_Product_Icon-Copy" transform="translate(108.000000, 259.000000)" fill-rule="nonzero">
                    <path d="M24.375,18 L8.625,18 L6,18 L6,20.5925926 L6,29.4074074 L6,32 L8.625,32 L24.375,32 L27,32 L27,29.4074074 L27,20.5925926 L27,18 L24.375,18 Z M24.375,29.4074074 L8.625,29.4074074 L8.625,20.5925926 L24.375,20.5925926 L24.375,29.4074074 Z" id="Shape" fill="#FFFFFF"></path>
                    <path d="M29.90625,46 L3.09375,46 C1.38445312,46 0,44.5964773 0,42.8636364 L0,3.13636364 C0,1.40352273 1.38445312,0 3.09375,0 L21.65625,0 L33,11.5 L33,42.8636364 C33,44.5964773 31.6155469,46 29.90625,46 Z" id="Path" fill="#00AC47"></path>
                    <polygon id="Path" fill="#00832D" points="22 0 33 11 22 11"></polygon>
                    <path d="M24.375,18 L17.8125,18 L15.1875,18 L8.625,18 L6,18 L6,20.5862069 L6,24.2068966 L6,26.7931034 L6,30.4137931 L6,33 L8.625,33 L15.1875,33 L17.8125,33 L24.375,33 L27,33 L27,30.4137931 L27,26.7931034 L27,24.2068966 L27,20.5862069 L27,18 L24.375,18 Z M8.625,20.5862069 L15.1875,20.5862069 L15.1875,24.2068966 L8.625,24.2068966 L8.625,20.5862069 Z M8.625,30.4137931 L8.625,26.7931034 L15.1875,26.7931034 L15.1875,30.4137931 L8.625,30.4137931 Z M24.375,30.4137931 L17.8125,30.4137931 L17.8125,26.7931034 L24.375,26.7931034 L24.375,30.4137931 Z M24.375,24.2068966 L17.8125,24.2068966 L17.8125,20.5862069 L24.375,20.5862069 L24.375,24.2068966 Z" id="Shape" fill="#FFFFFF"></path>
                </g>
                <g id="Slides_Product_Icon-Copy" transform="translate(346.000000, 39.000000)" fill-rule="nonzero">
                    <path d="M29,44 L3,44 C1.3425,44 0,42.6575 0,41 L0,3 C0,1.3425 1.3425,0 3,0 L21,0 L32,11 L32,41 C32,42.6575 30.6575,44 29,44 Z" id="Path" fill="#FFBA00"></path>
                    <polygon id="Path" fill="#FF9500" points="21 0 32 11 21 11"></polygon>
                    <path d="M23.5,17 L8.5,17 L6,17 L6,19.5925926 L6,28.4074074 L6,31 L8.5,31 L23.5,31 L26,31 L26,28.4074074 L26,19.5925926 L26,17 L23.5,17 Z M23.5,28.4074074 L8.5,28.4074074 L8.5,19.5925926 L23.5,19.5925926 L23.5,28.4074074 Z" id="Shape" fill="#FFFFFF"></path>
                </g>
                <g id="Drive_Product_Icon-Copy" transform="translate(185.000000, 323.000000)" fill-rule="nonzero">
                    <path d="M4.83851157,48.8519261 L7.66096978,53.7115745 C8.24742835,54.7346269 9.09046723,55.5384858 10.0801769,56.1230766 L20.1604062,38.7308118 L0,38.7308118 C0,39.8634983 0.29324426,40.9961849 0.879725292,42.0192373 L4.83851157,48.8519261 Z" id="Path" fill="#0066DA"></path>
                    <path d="M32.0000112,18.2692404 L21.9198568,0.876923421 C20.9301471,1.46153655 20.0870334,2.26535068 19.5005748,3.28847776 L0.879725292,35.4423117 C0.29324426,36.4654387 0,37.5981253 0,38.7308118 L20.1604062,38.7308118 L32.0000112,18.2692404 Z" id="Path" fill="#00AC47"></path>
                    <path d="M32.0000112,18.2692404 L42.0801657,0.876923421 C41.090456,0.292302832 39.9541504,0 38.7812333,0 L25.2187892,0 C24.0457972,0 22.9094916,0.328842551 21.9197819,0.876923421 L32.0000112,18.2692404 Z" id="Path" fill="#00832D"></path>
                    <path d="M43.8396163,38.7308118 L20.1603313,38.7308118 L10.0801769,56.1230766 C11.0698866,56.7077419 12.2061922,57 13.3791842,57 L50.6208383,57 C51.7938303,57 52.9301359,56.6711724 53.9198456,56.1230766 L43.8396163,38.7308118 Z" id="Path" fill="#2684FC"></path>
                    <path d="M53.9198456,56.1230766 C54.9095552,55.5384858 55.7525941,54.7346269 56.3390527,53.7115745 L57.5120447,51.7019645 L63.1202747,42.0192373 C63.7067333,40.9961849 64,39.8634983 64,38.7308118 L43.8763027,38.7308118 L53.9198456,56.1230766 Z" id="Path" fill="#EA4335"></path>
                    <path d="M53.8098612,19.365432 L44.4994477,3.28847776 C43.9129891,2.26535068 43.0698753,1.46153655 42.0801657,0.876923421 L32.0000112,18.2692404 L43.8396163,38.7308118 L63.9633885,38.7308118 C63.9633885,37.5981253 63.6701217,36.4654387 63.0836632,35.4423117 L53.8098612,19.365432 Z" id="Path" fill="#FFBA00"></path>
                </g>
            </g>
        </g>
    </g>
</svg>